<svg viewBox="0 0 28 28" fill="none" xmlns="http://www.w3.org/2000/svg">
<circle cx="20.1283" cy="11.8798" r="2.25231" fill="#1B1D21"/>
<path d="M6.15658 14.1375C8.89909 14.1493 17.0235 14.1802 16.9767 14.1335V10.5599C16.9757 10.309 16.8708 10.0698 16.687 9.8991C16.5032 9.72839 16.2569 9.64145 16.0067 9.65895C12.5259 10.0193 9.10876 10.8423 5.84567 12.1064C5.49532 12.2388 5.26381 12.5745 5.26466 12.949V13.2365C5.26346 13.4743 5.35676 13.7028 5.52403 13.8717C5.69129 14.0407 5.91883 14.1363 6.15658 14.1375Z" fill="#1B1D21"/>
<path d="M24.6342 8.72754C24.3854 8.72754 24.1837 8.92922 24.1837 9.178V15.034H3.46245V13.6826C3.46245 13.4338 3.26077 13.2322 3.01199 13.2322C2.7632 13.2322 2.56152 13.4338 2.56152 13.6826V17.7368H25.0847V9.178C25.0847 8.92922 24.883 8.72754 24.6342 8.72754Z" fill="#1B1D21"/>
<path d="M2.56152 19.5396V19.9901C2.56152 20.2388 2.7632 20.4405 3.01199 20.4405C3.26077 20.4405 3.46245 20.2388 3.46245 19.9901V19.5396H24.1837V19.9901C24.1837 20.2388 24.3854 20.4405 24.6342 20.4405C24.883 20.4405 25.0847 20.2388 25.0847 19.9901V18.6387H2.56152V19.5396Z" fill="#1B1D21"/>
</svg>
