<svg width="98" height="94" viewBox="0 0 98 94" fill="none" xmlns="http://www.w3.org/2000/svg">
<path d="M97.1397 8.76776L97.1397 85.7969C97.1397 89.9019 93.812 93.2296 89.7071 93.2296L8.62374 93.2296C4.51882 93.2296 1.19112 89.9019 1.19112 85.7969L1.19112 8.76775C1.19112 4.66281 4.51883 1.33511 8.62376 1.33511L89.7071 1.33512C93.812 1.33512 97.1397 4.66282 97.1397 8.76776Z" fill="#EED6F3" stroke="#C82AE8" stroke-width="1.35139"/>
<path d="M36.2194 33.6548C39.0804 33.6548 41.3997 31.3355 41.3997 28.4745C41.3997 25.6135 39.0804 23.2942 36.2194 23.2942C33.3584 23.2942 31.0391 25.6135 31.0391 28.4745C31.0391 31.3355 33.3584 33.6548 36.2194 33.6548Z" stroke="#C82AE8" stroke-width="4.05417" stroke-linecap="round" stroke-linejoin="round"/>
<path d="M31.0325 72.5069V59.5561L28.4424 56.9659V46.6053C28.4424 45.9183 28.7153 45.2595 29.201 44.7738C29.6868 44.288 30.3456 44.0151 31.0325 44.0151H41.3932C42.0801 44.0151 42.739 44.288 43.2247 44.7738C43.7105 45.2595 43.9834 45.9183 43.9834 46.6053V56.9659L41.3932 59.5561V72.5069" stroke="#C82AE8" stroke-width="4.05417" stroke-linecap="round" stroke-linejoin="round"/>
<path d="M62.1178 33.6548C64.9788 33.6548 67.2981 31.3355 67.2981 28.4745C67.2981 25.6135 64.9788 23.2942 62.1178 23.2942C59.2568 23.2942 56.9375 25.6135 56.9375 28.4745C56.9375 31.3355 59.2568 33.6548 62.1178 33.6548Z" stroke="#C82AE8" stroke-width="4.05417" stroke-linecap="round" stroke-linejoin="round"/>
<path d="M56.9342 72.5069V62.1463H51.7539L56.9342 46.6053C56.9342 45.9183 57.2071 45.2595 57.6929 44.7738C58.1786 44.288 58.8374 44.0151 59.5244 44.0151H64.7047C65.3917 44.0151 66.0505 44.288 66.5362 44.7738C67.022 45.2595 67.2949 45.9183 67.2949 46.6053L72.4752 62.1463H67.2949V72.5069" stroke="#C82AE8" stroke-width="4.05417" stroke-linecap="round" stroke-linejoin="round"/>
</svg>
