<svg width="99" height="95" viewBox="0 0 99 95" fill="none" xmlns="http://www.w3.org/2000/svg">
<path d="M97.3702 8.96478L97.3702 85.994C97.3702 90.0989 94.0425 93.4266 89.9376 93.4266L8.85421 93.4266C4.74929 93.4266 1.42159 90.0989 1.42159 85.9939L1.42159 8.96477C1.42159 4.85983 4.7493 1.53214 8.85423 1.53214L89.9376 1.53214C94.0425 1.53214 97.3702 4.85985 97.3702 8.96478Z" fill="#F7F6F3" stroke="#F4863E" stroke-width="1.35139"/>
<path d="M36.7838 37.3438L52.55 53.11V75.1827H36.7838V62.5697M36.7838 75.1827H21.0176V53.11L36.7838 37.3438M39.937 40.497V21.5776C39.937 20.7413 40.2692 19.9392 40.8606 19.3479C41.4519 18.7565 42.254 18.4243 43.0903 18.4243H74.6227C75.459 18.4243 76.261 18.7565 76.8524 19.3479C77.4437 19.9392 77.7759 20.7413 77.7759 21.5776V75.1827H52.55" stroke="#F4863E" stroke-width="4.05417" stroke-linecap="round" stroke-linejoin="round"/>
<path d="M52.5479 31.0381V31.0696" stroke="#F4863E" stroke-width="4.05417" stroke-linecap="round" stroke-linejoin="round"/>
<path d="M65.1641 31.0381V31.0696" stroke="#F4863E" stroke-width="4.05417" stroke-linecap="round" stroke-linejoin="round"/>
<path d="M65.1641 43.6494V43.6809" stroke="#F4863E" stroke-width="4.05417" stroke-linecap="round" stroke-linejoin="round"/>
<path d="M65.1641 56.2632V56.2947" stroke="#F4863E" stroke-width="4.05417" stroke-linecap="round" stroke-linejoin="round"/>
</svg>
