<svg viewBox="0 0 33 33" fill="none" xmlns="http://www.w3.org/2000/svg">
<path d="M15.6423 26.996C15.7663 27.1761 15.9322 27.3233 16.1257 27.425C16.3192 27.5267 16.5346 27.5798 16.7532 27.5798C16.9718 27.5798 17.1871 27.5267 17.3807 27.425C17.5742 27.3233 17.7401 27.1761 17.864 26.996L30.0265 9.42795C30.1673 9.22532 30.2499 8.98798 30.2652 8.74172C30.2806 8.49546 30.2282 8.2497 30.1137 8.03114C29.9992 7.81258 29.827 7.62958 29.6158 7.50203C29.4045 7.37447 29.1624 7.30723 28.9157 7.30762H4.59069C4.34452 7.30864 4.10329 7.37674 3.89294 7.5046C3.68258 7.63246 3.51107 7.81525 3.39683 8.03331C3.28259 8.25136 3.22995 8.49643 3.24458 8.74216C3.25921 8.98789 3.34054 9.22499 3.47984 9.42795L15.6423 26.996Z" fill="currentColor"/>
<path d="M15.6423 26.996C15.7663 27.1761 15.9322 27.3233 16.1257 27.425C16.3192 27.5267 16.5346 27.5798 16.7532 27.5798C16.9718 27.5798 17.1871 27.5267 17.3807 27.425C17.5742 27.3233 17.7401 27.1761 17.864 26.996L30.0265 9.42795C30.1673 9.22532 30.2499 8.98798 30.2652 8.74172C30.2806 8.49546 30.2282 8.2497 30.1137 8.03114C29.9992 7.81258 29.827 7.62958 29.6158 7.50203C29.4045 7.37447 29.1624 7.30723 28.9157 7.30762H4.59069C4.34452 7.30864 4.10329 7.37674 3.89294 7.5046C3.68258 7.63246 3.51107 7.81525 3.39683 8.03331C3.28259 8.25136 3.22995 8.49643 3.24458 8.74216C3.25921 8.98789 3.34054 9.22499 3.47984 9.42795L15.6423 26.996Z" fill="currentColor" fill-opacity="0.2"/>
</svg>
