<svg width="44" height="45" viewBox="0 0 44 45" fill="none" xmlns="http://www.w3.org/2000/svg">
<ellipse opacity="0.729787" cx="22.1021" cy="22.5719" rx="21.7232" ry="21.6222" fill="#D5FFE3"/>
<path d="M32.3798 15.2764C31.1147 13.8809 29.3788 13.1123 27.4916 13.1123C26.0809 13.1123 24.7889 13.5659 23.6516 14.4604V14.4604C22.778 15.1477 21.4203 15.1476 20.5466 14.4604V14.4604C19.4094 13.5659 18.1175 13.1123 16.7068 13.1123C14.8195 13.1123 13.0835 13.8809 11.8184 15.2764C10.5684 16.6556 9.87988 18.5398 9.87988 20.5822C9.87988 22.6843 10.6501 24.6085 12.3038 26.638C13.7831 28.4533 15.9092 30.2962 18.3713 32.4302C19.212 33.1589 20.1649 33.985 21.1544 34.8649C21.4158 35.0977 21.7513 35.2259 22.0992 35.2259C22.4469 35.2259 22.7825 35.0977 23.0436 34.8653C24.0331 33.9852 24.9866 33.1587 25.8277 32.4296C28.2894 30.296 30.4155 28.4533 31.8948 26.6378C33.5484 24.6085 34.3185 22.6843 34.3185 20.582C34.3185 18.5398 33.6299 16.6556 32.3798 15.2764Z" fill="#00B33C"/>
<ellipse opacity="0.729787" cx="22.1021" cy="22.5719" rx="21.7232" ry="21.6222" fill="#D5FFE3"/>
<path d="M32.3798 15.2764C31.1147 13.8809 29.3788 13.1123 27.4916 13.1123C26.0809 13.1123 24.7889 13.5659 23.6516 14.4604V14.4604C22.778 15.1477 21.4203 15.1476 20.5466 14.4604V14.4604C19.4094 13.5659 18.1175 13.1123 16.7068 13.1123C14.8195 13.1123 13.0835 13.8809 11.8184 15.2764C10.5684 16.6556 9.87988 18.5398 9.87988 20.5822C9.87988 22.6843 10.6501 24.6085 12.3038 26.638C13.7831 28.4533 15.9092 30.2962 18.3713 32.4302C19.212 33.1589 20.1649 33.985 21.1544 34.8649C21.4158 35.0977 21.7513 35.2259 22.0992 35.2259C22.4469 35.2259 22.7825 35.0977 23.0436 34.8653C24.0331 33.9852 24.9866 33.1587 25.8277 32.4296C28.2894 30.296 30.4155 28.4533 31.8948 26.6378C33.5484 24.6085 34.3185 22.6843 34.3185 20.582C34.3185 18.5398 33.6299 16.6556 32.3798 15.2764Z" fill="#00B33C"/>
</svg>
