<svg width="98" height="95" viewBox="0 0 98 95" fill="none" xmlns="http://www.w3.org/2000/svg">
<path d="M96.9522 8.96478L96.9522 85.994C96.9522 90.0989 93.6245 93.4266 89.5196 93.4266L8.43624 93.4266C4.33132 93.4266 1.00362 90.0989 1.00362 85.9939L1.00362 8.96477C1.00362 4.85983 4.33133 1.53214 8.43626 1.53214L89.5196 1.53214C93.6245 1.53214 96.9522 4.85985 96.9522 8.96478Z" fill="#E5F8F1" stroke="#40CC9C" stroke-width="1.35139"/>
<path d="M71.0497 36.4299L54.2335 23.3503C52.7577 22.2022 50.9414 21.5789 49.0716 21.5789C47.2019 21.5789 45.3855 22.2022 43.9098 23.3503L27.0904 36.4299C26.0796 37.2159 25.2618 38.2226 24.6995 39.373C24.1371 40.5233 23.8451 41.787 23.8457 43.0675V65.7708C23.8457 67.4434 24.5101 69.0475 25.6928 70.2302C26.8755 71.4129 28.4796 72.0773 30.1522 72.0773H67.9911C69.6637 72.0773 71.2677 71.4129 72.4504 70.2302C73.6331 69.0475 74.2976 67.4434 74.2976 65.7708V43.0675C74.2976 40.4723 73.0993 38.0223 71.0497 36.4299Z" stroke="#40CC9C" stroke-width="4.05417" stroke-linecap="round" stroke-linejoin="round"/>
<path d="M61.5931 56.2637C54.6245 60.4669 43.3295 60.4669 36.3672 56.2637" stroke="#40CC9C" stroke-width="4.05417" stroke-linecap="round" stroke-linejoin="round"/>
</svg>
