<svg viewBox="0 0 56 56" fill="none" xmlns="http://www.w3.org/2000/svg">
<g id="iconspace_Intersect_25px">
<g id="Group 6">
<path id="Path" d="M36.3534 34.7239V25.2856C36.3534 22.9163 34.4326 20.9955 32.0633 20.9955H22.625V13.2733C22.625 11.8517 23.7775 10.6992 25.1991 10.6992H44.0756C45.4972 10.6992 46.6497 11.8517 46.6497 13.2733V32.1498C46.6497 33.5715 45.4972 34.7239 44.0756 34.7239H36.3534Z" fill="#2E2E2E"/>
<path id="Path_2" fill-rule="evenodd" clip-rule="evenodd" d="M20.9057 31.2951V22.7148H13.1834C11.7618 22.7148 10.6094 23.8673 10.6094 25.2889V44.1655C10.6094 45.5871 11.7618 46.7395 13.1834 46.7395H32.06C33.4816 46.7395 34.6341 45.5871 34.6341 44.1655V36.4432H26.0538C23.2106 36.4432 20.9057 34.1383 20.9057 31.2951ZM32.0623 22.7148H22.6241V31.2951C22.6241 33.1906 24.1607 34.7272 26.0562 34.7272H34.6364V25.2889C34.6364 23.8673 33.484 22.7148 32.0623 22.7148Z" fill="#2E2E2E"/>
</g>
</g>
</svg>
