<svg width="22" height="23" viewBox="0 0 22 23" fill="none" xmlns="http://www.w3.org/2000/svg">
<path d="M10.8111 12.9733C10.1429 12.9733 9.4897 12.7751 8.93411 12.4039C8.37853 12.0326 7.9455 11.505 7.68979 10.8877C7.43408 10.2703 7.36718 9.59104 7.49754 8.93568C7.62789 8.28032 7.94966 7.67833 8.42215 7.20584C8.89464 6.73335 9.49662 6.41159 10.152 6.28123C10.8073 6.15087 11.4866 6.21777 12.104 6.47348C12.7213 6.72919 13.249 7.16222 13.6202 7.7178C13.9914 8.27339 14.1896 8.92658 14.1896 9.59478C14.1885 10.4905 13.8322 11.3492 13.1988 11.9825C12.5655 12.6159 11.7068 12.9722 10.8111 12.9733V12.9733ZM10.8111 7.5677C10.4102 7.5677 10.0183 7.68659 9.6849 7.90932C9.35155 8.13206 9.09174 8.44865 8.93831 8.81905C8.78489 9.18945 8.74474 9.59703 8.82296 9.99025C8.90117 10.3835 9.09423 10.7447 9.37773 11.0281C9.66122 11.3116 10.0224 11.5047 10.4156 11.5829C10.8088 11.6611 11.2164 11.621 11.5868 11.4676C11.9572 11.3141 12.2738 11.0543 12.4966 10.721C12.7193 10.3876 12.8382 9.9957 12.8382 9.59478C12.8376 9.05733 12.6239 8.54205 12.2439 8.16201C11.8638 7.78198 11.3485 7.56824 10.8111 7.5677V7.5677Z" fill="#00B33C"/>
<path d="M10.8116 21.082L5.11139 14.3596C5.03219 14.2586 4.95381 14.157 4.87625 14.0548C3.90256 12.7722 3.37655 11.2056 3.37891 9.59524C3.37891 7.62398 4.16199 5.73346 5.55588 4.33957C6.94977 2.94568 8.84029 2.1626 10.8116 2.1626C12.7828 2.1626 14.6733 2.94568 16.0672 4.33957C17.4611 5.73346 18.2442 7.62398 18.2442 9.59524C18.2466 11.2048 17.7208 12.7708 16.7475 14.0528L16.7469 14.0548C16.7469 14.0548 16.5441 14.321 16.5137 14.3569L10.8116 21.082ZM5.95466 13.2406C5.95601 13.2406 6.11277 13.4487 6.14859 13.4933L10.8116 18.9928L15.4806 13.4859C15.5103 13.4487 15.6684 13.2393 15.6691 13.2386C16.4645 12.1907 16.8944 10.9108 16.8928 9.59524C16.8928 7.98239 16.2521 6.4356 15.1116 5.29514C13.9712 4.15469 12.4244 3.51399 10.8116 3.51399C9.19871 3.51399 7.65192 4.15469 6.51146 5.29514C5.371 6.4356 4.7303 7.98239 4.7303 9.59524C4.72889 10.9117 5.15922 12.1922 5.95534 13.2406H5.95466Z" fill="#00B33C"/>
</svg>
