<svg width="21" height="21" viewBox="0 0 22 28" fill="none" xmlns="http://www.w3.org/2000/svg">
<path d="M11.1061 0.68457C5.14517 0.68457 0.295032 5.5347 0.295032 11.4889C0.255842 20.1986 10.6953 27.4204 11.1061 27.7123C11.1061 27.7123 21.9564 20.1986 21.9173 11.4957C21.9173 5.53471 17.0671 0.68457 11.1061 0.68457ZM11.1061 16.9012C8.11957 16.9012 5.70059 14.4823 5.70059 11.4957C5.70059 8.50911 8.11957 6.09013 11.1061 6.09013C14.0927 6.09013 16.5117 8.50911 16.5117 11.4957C16.5117 14.4823 14.0927 16.9012 11.1061 16.9012Z" fill="currentColor"/>
<path d="M11.1061 0.68457C5.14517 0.68457 0.295032 5.5347 0.295032 11.4889C0.255842 20.1986 10.6953 27.4204 11.1061 27.7123C11.1061 27.7123 21.9564 20.1986 21.9173 11.4957C21.9173 5.53471 17.0671 0.68457 11.1061 0.68457ZM11.1061 16.9012C8.11957 16.9012 5.70059 14.4823 5.70059 11.4957C5.70059 8.50911 8.11957 6.09013 11.1061 6.09013C14.0927 6.09013 16.5117 8.50911 16.5117 11.4957C16.5117 14.4823 14.0927 16.9012 11.1061 16.9012Z" fill="currentColor" fill-opacity="0.2"/>
</svg>
