<svg xmlns="http://www.w3.org/2000/svg" fill="none" viewBox="0 0 185 240"><g filter="url(#a)"><rect width="172.978" height="228.385" x="5.942" y="5.812" fill="#fff" rx="86.489"/><rect width="171.829" height="227.236" x="6.517" y="6.386" stroke="#000" stroke-opacity=".1" stroke-width="1.149" rx="85.915"/><path fill="#29623A" d="M92.41 39.597c-1.77 0-3.535.092-5.295.276a51.82 51.82 0 0 0-10.387 2.15 51.223 51.223 0 0 0-4.988 1.858 52.927 52.927 0 0 0-9.339 5.185 54.436 54.436 0 0 0-8.188 6.977 56.019 56.019 0 0 0-3.56 4.077 55.158 55.158 0 0 0-3.157 4.42 55.872 55.872 0 0 0-2.73 4.72 57.901 57.901 0 0 0-2.268 4.973 59.371 59.371 0 0 0-1.788 5.18 58.128 58.128 0 0 0-2.334 16.282v48.575c0 30.947 24.22 56.142 54.035 56.142a53.829 53.829 0 0 0 5.295-.276 51.884 51.884 0 0 0 5.245-.818 52.799 52.799 0 0 0 5.147-1.341 53.252 53.252 0 0 0 9.786-4.222 53.983 53.983 0 0 0 8.808-6.115 54.43 54.43 0 0 0 3.931-3.699 55.427 55.427 0 0 0 6.721-8.502 57.206 57.206 0 0 0 5.002-9.697 58.032 58.032 0 0 0 1.794-5.185 59.74 59.74 0 0 0 1.294-5.34 58.7 58.7 0 0 0 1.053-10.947V95.695c0-30.952-24.267-56.098-54.076-56.098Zm52.023 104.673a55.468 55.468 0 0 1-.992 10.535 55.176 55.176 0 0 1-2.967 10.128 54.373 54.373 0 0 1-4.826 9.325 53.251 53.251 0 0 1-6.488 8.163c-.787.818-1.574 1.632-2.403 2.406l-2.096 1.767a49.767 49.767 0 0 1-7.331 5.074l-1.878.998a49.577 49.577 0 0 1-7.112 2.987c-.657.276-1.355.455-2.054.682a59.33 59.33 0 0 1-7.462 1.54l-2.05.179a46.24 46.24 0 0 1-4.363.228 36.757 36.757 0 0 1-3.843-.179l-2.05-.184a47.643 47.643 0 0 1-7.205-1.404l-2.05-.586a49.226 49.226 0 0 1-7.461-3.041l-2.054-1.084a49.714 49.714 0 0 1-7.592-5.21l-2.054-1.767a53.575 53.575 0 0 1-7.467-8.434 54.38 54.38 0 0 1-5.584-9.872 55.509 55.509 0 0 1-3.457-10.874 55.851 55.851 0 0 1-1.169-11.377V95.695a56.413 56.413 0 0 1 1.006-10.525 56.74 56.74 0 0 1 1.244-5.137 54.913 54.913 0 0 1 6.526-14.312 53.847 53.847 0 0 1 3.036-4.25 52.837 52.837 0 0 1 3.429-3.922 52.265 52.265 0 0 1 7.871-6.715 52.77 52.77 0 0 1 4.374-2.721 52.434 52.434 0 0 1 4.611-2.266 50.366 50.366 0 0 1 9.749-3.074 49.747 49.747 0 0 1 10.14-1.046c28.673 0 52.022 24.198 52.022 53.968v48.575Z"/><path fill="#29623A" d="m117.326 132.536-2.05-1.675-6.94-5.621v-18.442a16.68 16.68 0 0 0-.661-4.672 16.404 16.404 0 0 0-1.933-4.27 15.858 15.858 0 0 0-3.037-3.515 15.356 15.356 0 0 0-3.885-2.45V81.874a6.6 6.6 0 0 0-.372-2.188 6.405 6.405 0 0 0-1.072-1.927 6.279 6.279 0 0 0-1.644-1.428 6.123 6.123 0 0 0-2.016-.755V61.8a2.505 2.505 0 0 1-1.007.228 2.25 2.25 0 0 1-1.09-.271v13.818h-.218a6 6 0 0 0-1.943.798c-.6.383-1.127.862-1.57 1.428a6.312 6.312 0 0 0-1.02 1.894 6.491 6.491 0 0 0-.353 2.135v10.147a15.59 15.59 0 0 0-3.782 2.48 16.04 16.04 0 0 0-2.949 3.49 16.465 16.465 0 0 0-1.872 4.212 16.65 16.65 0 0 0-.652 4.59v18.262l-8.729 7.161-.787.634-9.646 7.887v44.135l2.054 1.767v-44.861l7.592-6.164 2.054-1.675 7.462-6.119 2.05-1.676 7.205-5.843 2.049-1.545v-.135l4.104-3.351 4.103 3.307v.136l2.05 1.539 7.461 6.071 2.054 1.68 6.94 5.617 2.05 1.675 7.331 5.94v45.404l2.096-1.772v-44.677l-9.427-7.611ZM88.564 81.874a4.393 4.393 0 0 1 .787-2.493c.256-.363.56-.673.908-.934.35-.267.732-.465 1.142-.606l.219-.087a4.044 4.044 0 0 1 1.047-.135l.783.087h.266a4.141 4.141 0 0 1 2.203 1.52c.274.373.489.784.633 1.23.144.445.219.905.219 1.375v9.29a21.866 21.866 0 0 0-3.055-.498H91.4c-.965.087-1.91.271-2.837.542v-9.29Zm17.718 41.69-7.462-6.071V96.239h-.041a10.04 10.04 0 0 0-2.008-.77v20.344l-3.055-2.445-.266-.227-.782-.635-1.049.862-.218.228-2.837 2.266V95.469c-.69.223-1.355.499-2.007.818h-.042v21.25l-7.206 5.843v-16.582a14.401 14.401 0 0 1 1.942-7.247 13.93 13.93 0 0 1 2.292-2.959 13.593 13.593 0 0 1 2.972-2.212h.041a16.03 16.03 0 0 1 2.008-.905 14.923 14.923 0 0 1 2.837-.586h2.315c1.034.063 2.054.247 3.055.542.69.232 1.36.518 2.007.862h.042a13.456 13.456 0 0 1 3.065 2.198 13.799 13.799 0 0 1 2.376 2.982 14.434 14.434 0 0 1 2.021 7.369v16.722Z"/><path fill="#29623A" d="M69.796 136.298v56.592l-2.054-1.084v-53.925l2.054-1.583ZM79.31 128.368v68.149l-2.05-.586V130l2.05-1.632ZM98.82 122.431v75.445l-2.05.179v-77.256l2.05 1.632ZM108.332 130v65.655c-.656.276-1.355.455-2.054.683v-67.97l2.054 1.632ZM88.569 120.799v77.305l-2.05-.184v-75.489l2.05-1.632ZM117.328 137.881v53.789l-1.877.998-.173.087v-56.457l2.05 1.583Z"/></g><defs><filter id="a" width="183.789" height="239.196" x=".537" y=".406" color-interpolation-filters="sRGB" filterUnits="userSpaceOnUse"><feFlood flood-opacity="0" result="BackgroundImageFix"/><feColorMatrix in="SourceAlpha" result="hardAlpha" values="0 0 0 0 0 0 0 0 0 0 0 0 0 0 0 0 0 0 127 0"/><feOffset/><feGaussianBlur stdDeviation="2.703"/><feComposite in2="hardAlpha" operator="out"/><feColorMatrix values="0 0 0 0 0 0 0 0 0 0 0 0 0 0 0 0 0 0 0.1 0"/><feBlend in2="BackgroundImageFix" result="effect1_dropShadow_1_12917"/><feBlend in="SourceGraphic" in2="effect1_dropShadow_1_12917" result="shape"/></filter></defs></svg>