<svg viewBox="0 0 55 55" fill="none" xmlns="http://www.w3.org/2000/svg">
<circle opacity="0.729787" cx="27.7895" cy="27.2275" r="27.0278" fill="#D8FFE5"/>
<path d="M41.152 33.8762V37.9304C41.1535 38.3068 41.0764 38.6793 40.9256 39.0241C40.7748 39.369 40.5537 39.6785 40.2764 39.933C39.999 40.1874 39.6716 40.3811 39.3151 40.5017C38.9586 40.6223 38.5808 40.6671 38.2059 40.6332C34.0475 40.1813 30.053 38.7603 26.5435 36.4844C23.2783 34.4096 20.51 31.6413 18.4351 28.3761C16.1512 24.8506 14.7299 20.8367 14.2864 16.6595C14.2526 16.2858 14.297 15.9092 14.4168 15.5536C14.5365 15.198 14.729 14.8712 14.982 14.5941C15.235 14.317 15.5429 14.0956 15.8861 13.944C16.2294 13.7923 16.6004 13.7139 16.9756 13.7135H21.0298C21.6856 13.7071 22.3214 13.9393 22.8187 14.367C23.316 14.7946 23.6408 15.3885 23.7326 16.0379C23.9037 17.3353 24.221 18.6092 24.6785 19.8353C24.8604 20.319 24.8997 20.8447 24.7919 21.35C24.6841 21.8554 24.4338 22.3193 24.0704 22.6867L22.3542 24.403C24.2779 27.7863 27.0792 30.5876 30.4625 32.5113L32.1787 30.7951C32.5462 30.4317 33.0101 30.1813 33.5154 30.0736C34.0208 29.9658 34.5465 30.0051 35.0302 30.1869C36.2563 30.6445 37.5302 30.9618 38.8276 31.1329C39.484 31.2255 40.0836 31.5562 40.5121 32.062C40.9407 32.5678 41.1684 33.2135 41.152 33.8762Z" stroke="#00B33C" stroke-width="2.02708" stroke-linecap="round" stroke-linejoin="round"/>
</svg>
