<svg viewBox="0 0 21 20" fill="none" xmlns="http://www.w3.org/2000/svg">
<path d="M20.2572 9.95113H2.01238V1.84534C2.01226 1.55623 2.16607 1.28892 2.41609 1.14375C2.66611 0.998575 2.97451 0.997501 3.22554 1.14093L3.95776 1.55942C3.41806 2.50721 3.57731 3.69867 4.34699 4.47145L5.57555 5.69993L9.1139 2.16166L7.88501 0.9331C6.94258 -0.00868898 5.41767 -0.0163917 4.46578 0.915829L3.62782 0.437005C3.12584 0.150192 2.50914 0.152293 2.00913 0.442519C1.50912 0.732745 1.20143 1.2672 1.2015 1.84534V9.95113H0.796065C0.572146 9.95113 0.390625 10.1327 0.390625 10.3566C0.390625 10.5805 0.572146 10.762 0.796065 10.762H1.2015V12.3838H17.8245C18.0484 12.3838 18.23 12.5653 18.23 12.7892C18.23 13.0131 18.0484 13.1946 17.8245 13.1946H1.2015V14.0055C1.20236 15.6165 2.15743 17.0739 3.63414 17.7176V19.2762C3.63414 19.5002 3.81566 19.6817 4.03958 19.6817C4.2635 19.6817 4.44502 19.5002 4.44502 19.2762V17.9782C4.7119 18.0325 4.98355 18.0599 5.2559 18.0599H15.7973C16.0697 18.0599 16.3413 18.0325 16.6082 17.9782V19.2762C16.6082 19.5002 16.7897 19.6817 17.0136 19.6817C17.2376 19.6817 17.4191 19.5002 17.4191 19.2762V17.7176C18.8958 17.0739 19.8509 15.6165 19.8517 14.0055V10.762H20.2572C20.4811 10.762 20.6626 10.5805 20.6626 10.3566C20.6626 10.1327 20.4811 9.95113 20.2572 9.95113Z" fill="#1B1D21"/>
</svg>
