<svg width="33" height="34" viewBox="0 0 33 34" fill="none" xmlns="http://www.w3.org/2000/svg">
<path d="M11.9341 5.74276L14.7315 4.60759C15.8261 4.16164 17.0829 4.68868 17.5288 5.79682L18.3802 7.87795C18.8262 8.97258 18.2991 10.2294 17.191 10.6888L14.0963 11.9456C14.4206 13.4997 14.9207 15.3241 15.7045 17.2971C16.5829 19.5269 17.5964 21.3648 18.5153 22.8378L21.61 21.581C22.7182 21.1351 23.975 21.6621 24.4209 22.7703L25.2723 24.8514C25.7182 25.9595 25.1912 27.2163 24.0831 27.6623L21.2857 28.7975L21.2316 28.8245C18.218 30.0407 14.745 28.865 13.1774 26.0271C12.1233 24.1216 11.0827 21.9865 10.1232 19.5945C9.25833 17.4323 8.58264 15.3646 8.06911 13.4457C7.21773 10.2969 8.86643 7.01307 11.88 5.7833L11.9341 5.74276Z" stroke="#777777" stroke-width="1.62167" stroke-miterlimit="10" stroke-linecap="round" stroke-linejoin="round"/>
</svg>
