<svg width="28" height="26" viewBox="0 0 28 26" fill="none" xmlns="http://www.w3.org/2000/svg">
<path d="M12.8364 1.224C13.3009 0.120645 14.8831 0.120647 15.3476 1.224L18.0893 7.73619C18.2852 8.20134 18.728 8.51916 19.2363 8.55941L26.3527 9.12305C27.5585 9.21855 28.0474 10.7051 27.1287 11.4825L21.7068 16.0708C21.3195 16.3986 21.1503 16.9129 21.2686 17.4028L22.9251 24.2634C23.2058 25.4257 21.9259 26.3445 20.8936 25.7217L14.8009 22.0451C14.3657 21.7825 13.8184 21.7825 13.3832 22.0451L7.29046 25.7217C6.25816 26.3445 4.97819 25.4257 5.25884 24.2634L6.91536 17.4028C7.03368 16.9129 6.86455 16.3986 6.47728 16.0708L1.05525 11.4825C0.136602 10.7051 0.625515 9.21855 1.83126 9.12305L8.94776 8.55941C9.45607 8.51916 9.89886 8.20134 10.0947 7.73619L12.8364 1.224Z" fill="#1B7A43"/>
</svg>
