<svg width="25" height="26" viewBox="0 0 25 26" fill="none" xmlns="http://www.w3.org/2000/svg">
<path d="M24.2596 22.0286C24.6872 22.5037 24.6872 23.2163 24.2121 23.6439L22.8818 24.9742C22.4542 25.4493 21.7416 25.4493 21.2665 24.9742L16.563 20.2707C16.3255 20.0332 16.2305 19.7481 16.2305 19.463V18.6554C14.5201 19.9856 12.4297 20.7458 10.1492 20.7458C4.6856 20.7458 0.267187 16.3274 0.267187 10.8638C0.267187 5.44766 4.6856 0.981738 10.1492 0.981738C15.5653 0.981738 20.0313 5.44766 20.0313 10.8638C20.0313 13.1917 19.2236 15.2822 17.9408 16.945H18.701C18.986 16.945 19.2711 17.0875 19.5086 17.2776L24.2596 22.0286ZM10.1492 16.945C13.4749 16.945 16.2305 14.237 16.2305 10.8638C16.2305 7.53809 13.4749 4.78252 10.1492 4.78252C6.77603 4.78252 4.06797 7.53809 4.06797 10.8638C4.06797 14.237 6.77603 16.945 10.1492 16.945Z" fill="#777777"/>
</svg>
