<svg width="28" height="26" viewBox="0 0 28 26" fill="none" xmlns="http://www.w3.org/2000/svg">
<path d="M12.7866 1.224C13.2511 0.120645 14.8333 0.120647 15.2978 1.224L18.0395 7.73619C18.2354 8.20134 18.6782 8.51916 19.1865 8.55941L26.3029 9.12305C27.5086 9.21855 27.9975 10.7051 27.0789 11.4825L21.657 16.0708C21.2697 16.3986 21.1005 16.9129 21.2188 17.4028L22.8753 24.2634C23.156 25.4257 21.8761 26.3445 20.8437 25.7217L14.7511 22.0451C14.3159 21.7825 13.7686 21.7825 13.3334 22.0451L7.24065 25.7217C6.20836 26.3445 4.92838 25.4257 5.20904 24.2634L6.86555 17.4028C6.98387 16.9129 6.81474 16.3986 6.42748 16.0708L1.00544 11.4825C0.0867976 10.7051 0.575711 9.21855 1.78145 9.12305L8.89795 8.55941C9.40627 8.51916 9.84906 8.20134 10.0449 7.73619L12.7866 1.224Z" fill="#DDC5C5"/>
</svg>
