<svg fill="none" xmlns="http://www.w3.org/2000/svg" viewBox="0 0 33 33">
  <path d="M16.645 14.649a.253.253 0 0 0-.4 0l-3.547 4.488a.252.252 0 0 0 .2.409h2.34v7.677c0 .14.114.254.254.254h1.9c.14 0 .254-.114.254-.254V19.55h2.347a.253.253 0 0 0 .2-.409l-3.548-4.491Z" fill="currentColor"/>
  <path d="M25.928 11.726c-1.45-3.826-5.146-6.547-9.476-6.547-4.33 0-8.026 2.718-9.477 6.544a6.337 6.337 0 0 0-4.72 6.126c0 3.5 2.836 6.334 6.332 6.334h1.27c.14 0 .254-.114.254-.253v-1.9a.254.254 0 0 0-.254-.254h-1.27a3.905 3.905 0 0 1-2.819-1.194 3.926 3.926 0 0 1-1.105-2.87 3.897 3.897 0 0 1 .83-2.283 3.97 3.97 0 0 1 2.093-1.385l1.2-.313.441-1.16a7.779 7.779 0 0 1 2.79-3.589 7.669 7.669 0 0 1 4.435-1.399c1.6 0 3.132.485 4.434 1.4a7.783 7.783 0 0 1 2.79 3.589l.438 1.156 1.197.316a3.945 3.945 0 0 1 2.917 3.805 3.905 3.905 0 0 1-1.15 2.777 3.896 3.896 0 0 1-2.774 1.15h-1.27a.254.254 0 0 0-.254.253v1.9c0 .14.114.254.253.254h1.27a6.335 6.335 0 0 0 1.625-12.457Z" fill="currentColor"/>
</svg>
