<svg width="33" height="33" viewBox="0 0 33 33" fill="none" xmlns="http://www.w3.org/2000/svg">
<path d="M16.5336 28.491C23.2508 28.491 28.6961 23.0457 28.6961 16.3285C28.6961 9.61135 23.2508 4.16602 16.5336 4.16602C9.81643 4.16602 4.37109 9.61135 4.37109 16.3285C4.37109 23.0457 9.81643 28.491 16.5336 28.491Z" stroke="white" stroke-width="2.02708" stroke-linecap="round" stroke-linejoin="round"/>
<path d="M16.5337 17.6799C18.7727 17.6799 20.5878 15.8648 20.5878 13.6257C20.5878 11.3866 18.7727 9.57153 16.5337 9.57153C14.2946 9.57153 12.4795 11.3866 12.4795 13.6257C12.4795 15.8648 14.2946 17.6799 16.5337 17.6799Z" stroke="white" stroke-width="2.02708" stroke-linecap="round" stroke-linejoin="round"/>
<path d="M8.65234 25.5842C8.98682 24.471 9.67125 23.4952 10.6041 22.8017C11.5369 22.1082 12.6685 21.7338 13.8309 21.7341H19.2364C20.4003 21.7337 21.5333 22.109 22.4668 22.8041C23.4003 23.4993 24.0845 24.4772 24.4176 25.5923" stroke="white" stroke-width="2.02708" stroke-linecap="round" stroke-linejoin="round"/>
</svg>
